<?xml version="1.0" standalone="no"?>
<!DOCTYPE svg PUBLIC "-//W3C//DTD SVG 1.1//EN" "http://www.w3.org/Graphics/SVG/1.1/DTD/svg11.dtd" >
<svg xmlns="http://www.w3.org/2000/svg" xmlns:xlink="http://www.w3.org/1999/xlink" version="1.1">
<metadata>
Created by FontForge 20170910 at Thu Apr 15 12:34:33 1993
 By Jimmy Wärting
This is a copyrighted typeface program
</metadata>
<defs>
<font id="Function-Regular" horiz-adv-x="567" >
  <font-face 
    font-family="Function"
    font-weight="400"
    font-stretch="normal"
    units-per-em="1000"
    panose-1="0 0 0 0 0 0 0 0 0 0"
    ascent="800"
    descent="-200"
    x-height="415"
    cap-height="667"
    bbox="-143 -250 1044 906"
    underline-thickness="69"
    underline-position="-132"
    unicode-range="U+0020-F002"
  />
<missing-glyph horiz-adv-x="766" 
d="M47 0v766h672v-766h-672zM672 47v672h-578v-672h578z" />
    <glyph glyph-name=".notdef" horiz-adv-x="766" 
d="M47 0v766h672v-766h-672zM672 47v672h-578v-672h578z" />
    <glyph glyph-name=".null" horiz-adv-x="0" 
 />
    <glyph glyph-name="nonmarkingreturn" horiz-adv-x="250" 
 />
    <glyph glyph-name="space" unicode=" " horiz-adv-x="250" 
 />
    <glyph glyph-name="exclam" unicode="!" horiz-adv-x="279" 
d="M139 89q21 0 35.5 -14.5t14.5 -34.5q0 -21 -14.5 -35.5t-35.5 -14.5t-35 14t-14 36q0 21 14 35t35 14zM103 135v532h73v-532h-73z" />
    <glyph glyph-name="quotedbl" unicode="&#x22;" horiz-adv-x="329" 
d="M120 399h-54l-13 268h81zM263 399h-54l-13 268h80z" />
    <glyph glyph-name="numbersign" unicode="#" horiz-adv-x="600" 
d="M559 471v-60h-110l-18 -139h103v-60h-110l-27 -214l-62 9l25 205h-141l-27 -214l-62 9l25 205h-106v60h114l17 139h-106v60h114l24 201l63 -9l-24 -192h141l25 201l62 -9l-24 -192h104zM384 411h-140l-17 -139h140z" />
    <glyph glyph-name="dollar" unicode="$" 
d="M327 763v-91q90 -13 140 -101l-58 -38q-22 34 -38.5 48.5t-43.5 20.5v-219q93 -41 128.5 -81.5t35.5 -106.5q0 -75 -44 -128.5t-120 -70.5v-97h-59v93q-73 0 -123 45t-68 125l72 20q13 -58 42.5 -89t76.5 -31v269q-85 35 -121 75t-36 99q0 66 42 111.5t115 56.5v90h59z
M327 304v-237q41 16 65 49t24 75q0 37 -20.5 63.5t-68.5 49.5zM268 409v194q-38 -10 -60 -36.5t-22 -63.5q0 -57 82 -94z" />
    <glyph glyph-name="percent" unicode="%" horiz-adv-x="715" 
d="M182 674q62 0 105 -42t43 -104q0 -60 -43.5 -102.5t-104.5 -42.5q-62 0 -105.5 42.5t-43.5 102.5q0 61 43.5 103.5t105.5 42.5zM182 619q-38 0 -64 -26t-26 -64t26 -64t64 -26q37 0 63 26t26 64t-26 64t-63 26zM532 680l38 -22l-388 -671l-38 23zM534 284q62 0 105 -42
t43 -104q0 -60 -43.5 -102.5t-104.5 -42.5q-63 0 -106 42t-43 103t43.5 103.5t105.5 42.5zM534 229q-38 0 -64 -26t-26 -64t26 -64t64 -26q37 0 63 26t26 64t-26 64t-63 26z" />
    <glyph glyph-name="ampersand" unicode="&#x26;" horiz-adv-x="636" 
d="M328 380l140 -179q35 37 76 88l53 -45q-37 -51 -85 -99l114 -145h-93l-73 93q-117 -106 -212 -106q-83 0 -139 54t-56 135q0 90 93 164l79 54q-39 52 -53 81.5t-14 61.5q0 61 41 101t105 40q60 0 101 -38t41 -94q0 -47 -23 -79.5t-95 -86.5zM268 339l-6 -4
q-44 -29 -58.5 -40t-46 -40t-31.5 -80q0 -48 36 -84t83 -36q69 0 171 93zM284 436q61 43 76 61t15 49q0 30 -20 49t-53 19q-31 0 -52 -21t-21 -52q0 -22 7 -35.5t44 -64.5l2 -2z" />
    <glyph glyph-name="quotesingle" unicode="'" horiz-adv-x="187" 
d="M120 399h-54l-13 268h81z" />
    <glyph glyph-name="parenleft" unicode="(" horiz-adv-x="294" 
d="M166 733l64 -29q-75 -191 -75 -427q0 -235 75 -428l-64 -29q-32 70 -57.5 194.5t-25.5 262.5q0 137 20.5 239.5t31.5 138.5t31 78z" />
    <glyph glyph-name="parenright" unicode=")" horiz-adv-x="294" 
d="M126 -180l-63 29q75 193 75 428q0 234 -75 427l63 29q18 -38 31 -78t33 -140.5t20 -237.5q0 -72 -7 -140.5t-21 -136.5t-25 -103t-31 -77z" />
    <glyph glyph-name="asterisk" unicode="*" 
d="M255 605l-5 124h67l-5 -124l116 43l21 -63l-120 -34l77 -97l-54 -40l-69 104l-68 -104l-54 40l77 97l-120 34l21 63z" />
    <glyph glyph-name="plus" unicode="+" 
d="M48 310v61h205v201h61v-201h205v-61h-205v-202h-61v202h-205z" />
    <glyph glyph-name="comma" unicode="," horiz-adv-x="227" 
d="M107 98l65 -24l-100 -226l-48 19z" />
    <glyph glyph-name="hyphen" unicode="-" horiz-adv-x="181" 
d="M0 245h181v-64h-181v64z" />
    <glyph glyph-name="hyphen" unicode="&#xad;" horiz-adv-x="181" 
d="M0 245h181v-64h-181v64z" />
    <glyph glyph-name="period" unicode="." horiz-adv-x="227" 
d="M113 89q21 0 35.5 -14.5t14.5 -35.5t-14 -35t-36 -14q-21 0 -35 14t-14 35t14.5 35.5t34.5 14.5z" />
    <glyph glyph-name="slash" unicode="/" horiz-adv-x="485" 
d="M422 733l58 -26l-436 -887l-58 27z" />
    <glyph glyph-name="zero" unicode="0" 
d="M284 677q102 0 170 -98t68 -246q0 -146 -69 -245t-170 -99q-100 0 -169 99t-69 245q0 145 69 244.5t170 99.5zM283 609q-69 0 -117 -79.5t-48 -194.5q0 -120 46.5 -198.5t117.5 -78.5t119 79t48 197t-47.5 196.5t-118.5 78.5z" />
    <glyph glyph-name="one" unicode="1" 
d="M264 598h-110l39 69h146v-667h-75v598z" />
    <glyph glyph-name="two" unicode="2" 
d="M201 69h279v-69h-430l242 281q66 75 91 118.5t25 80.5q0 53 -39 91t-95 38q-121 0 -133 -137h-75q4 44 12 69.5t29.5 57.5t67 55t97.5 23q88 0 148.5 -56.5t60.5 -139.5q0 -57 -27 -105t-117 -151z" />
    <glyph glyph-name="three" unicode="3" 
d="M254 317v65q132 0 132 114q0 47 -32 80t-80 33q-52 0 -78.5 -24.5t-36.5 -82.5h-73q26 175 185 175q81 0 134.5 -50.5t53.5 -128.5q0 -100 -85 -148q95 -44 95 -163q0 -85 -59 -141t-148 -56q-56 0 -103.5 26t-65 58t-23 51t-5.5 48h72q17 -114 128 -114q55 0 93 38
t38 94q0 126 -142 126z" />
    <glyph glyph-name="four" unicode="4" 
d="M435 176h82v-67h-82v-109h-74v109h-342l416 594v-527zM361 176v301l-211 -301h211z" />
    <glyph glyph-name="five" unicode="5" 
d="M477 598h-213l-44 -142q21 4 38 4q97 0 160.5 -65.5t63.5 -166.5q0 -102 -70 -170t-175 -68q-130 0 -204 119l59 42q58 -92 151 -92q70 0 118 49t48 122q0 68 -48 116t-117 48q-56 0 -129 -46l97 319h265v-69z" />
    <glyph glyph-name="six" unicode="6" 
d="M335 684l56 -42l-154 -214q18 6 37 8t23 2q89 0 152 -64t63 -157q0 -94 -67 -161t-162 -67q-96 0 -163 66t-67 162q0 76 55 151zM283 372q-65 0 -111 -46t-46 -111t46 -111t111 -46q64 0 110 46t46 111t-45 111t-111 46z" />
    <glyph glyph-name="seven" unicode="7" 
d="M437 598h-364v69h491l-447 -682l-58 39z" />
    <glyph glyph-name="eight" unicode="8" 
d="M184 347q-82 49 -82 146q0 79 53.5 131.5t134.5 52.5q79 0 132.5 -52.5t53.5 -130.5q0 -45 -23 -85t-61 -62q97 -48 97 -161q0 -85 -57 -141t-145 -56q-87 0 -144.5 56.5t-57.5 140.5q0 109 99 161zM289 609q-48 0 -82 -34t-34 -82t34 -82t82 -34t82 34t34 82t-34 82
t-82 34zM287 313q-53 0 -91 -37t-38 -90t37.5 -90.5t91.5 -37.5q53 0 91 37t38 91q0 53 -38 90t-91 37z" />
    <glyph glyph-name="nine" unicode="9" 
d="M231 -16l-55 41l153 214q-32 -9 -59 -9q-90 0 -153 64t-63 156q0 94 67.5 160.5t162.5 66.5q96 0 163 -66t67 -161q0 -75 -55 -151zM284 609q-65 0 -111 -45t-46 -111q0 -65 46 -111t111 -46t111 46t46 111q0 64 -46 110t-111 46z" />
    <glyph glyph-name="colon" unicode=":" horiz-adv-x="227" 
d="M113 89q21 0 35.5 -14.5t14.5 -35.5t-14 -35t-36 -14q-21 0 -35 14t-14 35t14.5 35.5t34.5 14.5zM113 424q21 0 35 -14t14 -35t-14 -35t-35 -14t-35 14t-14 35t14 35t35 14z" />
    <glyph glyph-name="semicolon" unicode=";" horiz-adv-x="227" 
d="M107 98l65 -24l-100 -226l-48 19zM129 424q21 0 35 -14t14 -35t-14 -35t-35 -14t-35 14t-14 35t14 35t35 14z" />
    <glyph glyph-name="less" unicode="&#x3c;" horiz-adv-x="500" 
d="M466 573v-75l-353 -161l353 -162v-74l-433 203v65z" />
    <glyph glyph-name="equal" unicode="=" 
d="M48 373v58h471v-58h-471zM48 249v58h471v-58h-471z" />
    <glyph glyph-name="greater" unicode="&#x3e;" horiz-adv-x="500" 
d="M34 101v74l353 162l-353 161v75l433 -204v-65z" />
    <glyph glyph-name="question" unicode="?" horiz-adv-x="436" 
d="M289 286h72q0 -71 -39 -112t-104 -41q-62 0 -103 41t-41 103q0 96 84.5 123t95 31.5t32 21.5t21.5 61q0 41 -25.5 66.5t-65.5 25.5q-37 0 -62.5 -24.5t-25.5 -60.5q0 -18 6 -44h-73q-2 12 -3 26.5t-1 23.5q0 62 47 105t116 43q68 0 114 -46t46 -114q0 -40 -17 -74.5
t-40 -50.5t-39 -22.5t-77 -24t-61 -71.5q0 -31 20.5 -51.5t51.5 -20.5q71 0 71 86zM218 89q21 0 35.5 -14.5t14.5 -34.5q0 -21 -14.5 -35.5t-35.5 -14.5t-35 14t-14 36q0 21 14 35t35 14z" />
    <glyph glyph-name="at" unicode="@" horiz-adv-x="720" 
d="M542 508l-27 -227q-3 -21 -3 -33v-15q0 -29 26 -29q36 0 64 52t28 119q0 107 -72 175t-188 68q-118 0 -199 -83t-81 -203q0 -126 82.5 -204.5t213.5 -78.5q63 0 106.5 11t112.5 45l21 -59q-119 -58 -240 -58q-159 0 -260 96t-101 249q0 146 99.5 245.5t247.5 99.5
q136 0 227 -85t91 -214q0 -96 -48 -167t-114 -71q-51 0 -71 59q-30 -33 -58 -47t-65 -14q-72 0 -120 51t-48 130q0 86 53 141t137 55q70 0 115 -56l5 48h66zM358 451q-50 0 -83 -38t-33 -95q0 -50 27 -82t69 -32q47 0 83 42.5t36 99.5q0 47 -27 76t-72 29z" />
    <glyph glyph-name="A" unicode="A" horiz-adv-x="620" 
d="M453 189h-285l-80 -189h-81l307 699l300 -699h-82zM424 258l-111 267l-114 -267h225z" />
    <glyph glyph-name="B" unicode="B" horiz-adv-x="530" 
d="M87 0v667h121q100 0 156.5 -45.5t56.5 -134.5q0 -83 -66 -130q60 -17 93 -61.5t33 -107.5q0 -88 -49 -128t-85 -50t-94 -10h-166zM162 373h56q130 0 130 114q0 111 -128 111h-58v-225zM162 69h85q47 0 71.5 6t56.5 33t32 83q0 31 -15 57.5t-46 44t-109 17.5h-75v-241z
" />
    <glyph glyph-name="C" unicode="C" horiz-adv-x="646" 
d="M596 612v-92q-48 46 -96.5 67t-106.5 21q-109 0 -188.5 -81.5t-79.5 -193.5q0 -113 79 -194t191 -81q108 0 201 87v-92q-49 -33 -97 -49t-102 -16q-143 0 -245 101t-102 242q0 143 102 245t246 102q56 0 102 -15t96 -51z" />
    <glyph glyph-name="D" unicode="D" horiz-adv-x="633" 
d="M87 0v667h137q154 0 257 -86t103 -249q0 -158 -83 -227t-140 -87t-138 -18h-136zM162 69h65q128 0 205 72t77 192q0 121 -77 193t-205 72h-65v-529z" />
    <glyph glyph-name="E" unicode="E" horiz-adv-x="482" 
d="M432 598h-270v-199h263v-69h-263v-261h270v-69h-345v667h345v-69z" />
    <glyph glyph-name="F" unicode="F" horiz-adv-x="433" 
d="M390 598h-228v-199h221v-69h-221v-330h-75v667h303v-69z" />
    <glyph glyph-name="G" unicode="G" horiz-adv-x="758" 
d="M430 335h278v-17q0 -58 -9 -99t-40 -94t-106.5 -94.5t-160.5 -41.5q-140 0 -241 101t-101 242q0 146 102 246t250 100q82 0 147 -34t130 -111l-55 -50q-94 125 -222 125q-116 0 -196.5 -79.5t-80.5 -196.5q0 -113 79 -193t192 -80q61 0 117.5 31.5t79 68t29 57t6.5 50.5
h-198v69z" />
    <glyph glyph-name="H" unicode="H" horiz-adv-x="663" 
d="M162 395h340v272h75v-667h-75v326h-340v-326h-75v667h75v-272z" />
    <glyph glyph-name="I" unicode="I" horiz-adv-x="248" 
d="M162 667v-667h-75v667h75z" />
    <glyph glyph-name="J" unicode="J" horiz-adv-x="307" 
d="M220 667v-539q0 -63 -11 -98t-45 -67t-89 -32q-62 0 -122 50l41 57q23 -21 40 -29t37 -8q39 0 56.5 30.5t17.5 96.5v539h75z" />
    <glyph glyph-name="K" unicode="K" horiz-adv-x="569" 
d="M162 381l284 286h100l-313 -311l323 -356h-102l-273 306l-19 -19v-287h-75v667h75v-286z" />
    <glyph glyph-name="L" unicode="L" horiz-adv-x="358" 
d="M162 667v-598h183v-69h-258v667h75z" />
    <glyph glyph-name="M" unicode="M" horiz-adv-x="863" 
d="M63 0l110 704l256 -563l262 564l103 -705h-76l-62 464l-227 -492l-224 492l-66 -464h-76z" />
    <glyph glyph-name="N" unicode="N" horiz-adv-x="767" 
d="M87 0v695l519 -545v517h75v-697l-519 544v-514h-75z" />
    <glyph glyph-name="O" unicode="O" horiz-adv-x="794" 
d="M398 678q142 0 244 -101t102 -244q0 -141 -102 -243t-244 -102q-146 0 -247 101t-101 248q0 138 103.5 239.5t244.5 101.5zM397 608q-111 0 -191.5 -79.5t-80.5 -191.5q0 -117 79 -198t193 -81q113 0 192.5 80.5t79.5 193.5q0 115 -79.5 195.5t-192.5 80.5z" />
    <glyph glyph-name="P" unicode="P" horiz-adv-x="457" 
d="M162 292v-292h-75v667h121q64 0 101 -10.5t83 -49.5t46 -128q0 -87 -56 -137t-155 -50h-65zM162 360h60q69 0 106 31t37 90q0 117 -148 117h-55v-238z" />
    <glyph glyph-name="Q" unicode="Q" horiz-adv-x="794" 
d="M748 -7h-95l-56 60q-91 -65 -201 -65q-144 0 -245 100t-101 244t102 245t246 101q143 0 244.5 -102.5t101.5 -246.5q0 -68 -22 -122t-74 -113zM481 268l115 -120q39 42 56 85.5t17 99.5q0 115 -79 195t-193 80q-115 0 -193.5 -79.5t-78.5 -195.5q0 -115 78 -195t192 -80
q82 0 150 48l-161 162h97z" />
    <glyph glyph-name="R" unicode="R" horiz-adv-x="502" 
d="M261 298l212 -298h-91l-201 292h-19v-292h-75v667h108q58 0 94.5 -8t68 -29.5t51.5 -61t20 -85.5q0 -79 -45 -128t-123 -57zM162 358h47q147 0 147 125q0 115 -150 115h-44v-240z" />
    <glyph glyph-name="S" unicode="S" horiz-adv-x="517" 
d="M443 574l-59 -38q-25 40 -50.5 56t-64.5 16q-47 0 -78.5 -29.5t-31.5 -73.5q0 -43 27 -61.5t37 -24.5t30 -14l21 -10l21 -9l21 -9q151 -66 151 -183q0 -87 -60.5 -146.5t-149.5 -59.5q-81 0 -134 44t-73 128l72 20q27 -122 134 -122q58 0 97 37t39 94q0 61 -40.5 86.5
t-72.5 38.5l-20 10l-20 9l-20 9q-72 32 -103.5 70.5t-31.5 94.5q0 73 53.5 122t133.5 49q112 0 172 -104z" />
    <glyph glyph-name="T" unicode="T" horiz-adv-x="425" 
d="M249 598v-598h-75v598h-161v69h398v-69h-162z" />
    <glyph glyph-name="U" unicode="U" horiz-adv-x="649" 
d="M162 667v-409q0 -55 4 -80t21 -52.5t56 -47.5t82 -20q42 0 81 20t55 46.5t21 55.5t5 78v409h75v-429q0 -54 -10 -90.5t-38.5 -73t-80 -61.5t-108.5 -25q-59 0 -110 24t-89.5 74t-38.5 152v429h75z" />
    <glyph glyph-name="V" unicode="V" horiz-adv-x="554" 
d="M89 667l189 -508l189 508h81l-271 -706l-270 706h82z" />
    <glyph glyph-name="W" unicode="W" horiz-adv-x="955" 
d="M88 667l178 -500l209 534l197 -534l196 500h81l-279 -701l-197 533l-210 -533l-256 701h81z" />
    <glyph glyph-name="X" unicode="X" horiz-adv-x="502" 
d="M210 345l-180 322h85l138 -251l141 251h85l-184 -322l193 -345h-83l-153 274l-155 -274h-84z" />
    <glyph glyph-name="Y" unicode="Y" horiz-adv-x="528" 
d="M225 287l-218 380h86l170 -298l172 298h87l-222 -380v-287h-75v287z" />
    <glyph glyph-name="Z" unicode="Z" horiz-adv-x="534" 
d="M147 69h354v-69h-478l364 598h-317v69h440z" />
    <glyph glyph-name="bracketleft" unicode="[" horiz-adv-x="291" 
d="M153 662v-771h95v-67h-168v905h168v-67h-95z" />
    <glyph glyph-name="backslash" unicode="\" horiz-adv-x="485" 
d="M63 733l436 -886l-58 -27l-436 887z" />
    <glyph glyph-name="bracketright" unicode="]" horiz-adv-x="291" 
d="M138 -109v771h-95v67h168v-905h-168v67h95z" />
    <glyph glyph-name="asciicircum" unicode="^" horiz-adv-x="500" 
d="M105 364h-81l176 305h99l176 -305h-81l-145 245z" />
    <glyph glyph-name="underscore" unicode="_" horiz-adv-x="500" 
d="M0 -64h500v-69h-500v69z" />
    <glyph glyph-name="grave" unicode="`" horiz-adv-x="500" 
d="M114 633l74 33l105 -144l-44 -25z" />
    <glyph glyph-name="a" unicode="a" horiz-adv-x="524" 
d="M385 415h71v-415h-71v58q-57 -70 -144 -70q-86 0 -142.5 62.5t-56.5 157.5t56 156t143 61q85 0 144 -69v59zM250 360q-57 0 -96 -43t-39 -106q0 -69 38.5 -113.5t97.5 -44.5q63 0 101 43t38 114q0 66 -39 108t-101 42z" />
    <glyph glyph-name="b" unicode="b" horiz-adv-x="524" 
d="M139 729v-373q59 68 144 68q87 0 143 -60.5t56 -155.5t-56.5 -157.5t-141.5 -62.5q-88 0 -145 70v-58h-71v729h71zM274 359q-62 0 -101 -41t-39 -108q0 -71 38 -114t101 -43q58 0 97 43t39 109t-38 110t-97 44z" />
    <glyph glyph-name="c" unicode="c" horiz-adv-x="435" 
d="M391 385v-94q-63 68 -131 68q-62 0 -104 -44t-42 -109t41 -109t102 -44q42 0 71 15t66 57v-94q-69 -43 -133 -43q-93 0 -156.5 62.5t-63.5 154.5q0 94 63.5 156.5t158.5 62.5q68 0 128 -39z" />
    <glyph glyph-name="d" unicode="d" horiz-adv-x="524" 
d="M385 729h71v-729h-72v58q-52 -70 -143 -70q-86 0 -142.5 62.5t-56.5 157.5q0 94 56 155t143 61q44 0 78.5 -16t65.5 -52v373zM250 359q-57 0 -96 -43t-39 -106q0 -69 38 -113t98 -44q62 0 100 43t38 114q0 67 -38 108t-101 41z" />
    <glyph glyph-name="e" unicode="e" horiz-adv-x="481" 
d="M440 193h-324q0 -63 37.5 -101.5t94.5 -38.5q41 0 69.5 19t58.5 68l60 -34q-68 -118 -192 -118q-91 0 -147 61t-56 160q0 95 56.5 155.5t145.5 60.5t143 -60t54 -158v-14zM121 253h244q-10 49 -43 78t-79 29t-80 -30t-42 -77z" />
    <glyph glyph-name="f" unicode="f" horiz-adv-x="239" 
d="M139 349v-349h-71v349h-39v66h39v176q0 149 121 149q19 0 23.5 -0.5t31.5 -7.5v-72q-28 9 -48 9q-33 0 -45 -19.5t-12 -74.5v-160h105v-66h-105z" />
    <glyph glyph-name="g" unicode="g" horiz-adv-x="525" 
d="M456 415v-406q0 -64 -8 -97.5t-48 -88.5t-149 -55q-91 0 -146.5 51.5t-55.5 139.5h70q11 -126 133 -126q133 0 133 164v60q-61 -69 -146 -69q-84 0 -141 62t-57 155q0 95 56.5 157.5t144.5 62.5q86 0 143 -69v59h71zM250 360q-60 0 -98 -43t-38 -110q0 -68 38 -111
t97 -43q61 0 100 43t39 110q0 69 -38.5 111.5t-99.5 42.5z" />
    <glyph glyph-name="h" unicode="h" horiz-adv-x="469" 
d="M68 729h71v-363q26 31 53.5 44.5t66.5 13.5q38 0 69 -15t52 -47t21 -105v-257h-71v252q0 57 -20 82t-66 25q-56 0 -80.5 -35.5t-24.5 -116.5v-207h-71v729z" />
    <glyph glyph-name="i" unicode="i" horiz-adv-x="208" 
d="M139 415v-415h-71v415h71zM104 623q21 0 36 -15t15 -36t-15 -36t-36 -15t-36 15t-15 36t15 36t36 15z" />
    <glyph glyph-name="j" unicode="j" horiz-adv-x="208" 
d="M139 415v-649h-71v649h71zM104 623q21 0 36 -15t15 -36t-15 -36t-36 -15t-36 15t-15 36t15 36t36 15z" />
    <glyph glyph-name="k" unicode="k" horiz-adv-x="421" 
d="M139 729v-467l150 153h95l-177 -177l211 -238h-94l-167 189l-18 -18v-171h-71v729h71z" />
    <glyph glyph-name="l" unicode="l" horiz-adv-x="207" 
d="M139 729v-729h-71v729h71z" />
    <glyph glyph-name="m" unicode="m" horiz-adv-x="680" 
d="M68 415h71v-45q41 55 103 55q77 0 114 -67q38 67 121 67q135 0 135 -162v-263h-71v252q0 57 -17.5 82.5t-57.5 25.5q-89 0 -89 -130v-230h-71v246q0 114 -75 114q-92 0 -92 -134v-226h-71v415z" />
    <glyph glyph-name="n" unicode="n" horiz-adv-x="469" 
d="M68 415h71v-50q26 32 54 46t66 14t69.5 -15t52 -47t20.5 -106v-257h-71v245q0 65 -19.5 90.5t-68.5 25.5q-54 0 -78.5 -36.5t-24.5 -117.5v-207h-71v415z" />
    <glyph glyph-name="o" unicode="o" horiz-adv-x="521" 
d="M260 424q92 0 156 -63t64 -155q0 -93 -63.5 -155.5t-156.5 -62.5t-156 64t-63 158q0 88 64 151t155 63zM259 359q-63 0 -104 -43t-41 -110q0 -66 41.5 -109.5t103.5 -43.5q64 0 106 43t42 110q0 68 -41.5 110.5t-106.5 42.5z" />
    <glyph glyph-name="p" unicode="p" horiz-adv-x="524" 
d="M139 -234h-71v649h71v-59q59 69 145 69q87 0 143 -63t56 -161q0 -91 -57 -152t-143 -61q-84 0 -144 70v-292zM274 360q-62 0 -100.5 -43.5t-38.5 -113.5q0 -66 39 -108t101 -42q57 0 96 43t39 106q0 70 -38 114t-98 44z" />
    <glyph glyph-name="q" unicode="q" horiz-adv-x="524" 
d="M385 -234v292q-60 -70 -144 -70q-86 0 -142.5 60.5t-56.5 152.5q0 98 56 161t142 63q93 0 144 -69v59h72v-649h-71zM251 360q-58 0 -97 -43t-39 -109q0 -67 38 -111t97 -44q63 0 101 41t38 109q0 72 -37.5 114.5t-100.5 42.5z" />
    <glyph glyph-name="r" unicode="r" horiz-adv-x="295" 
d="M68 415h71v-45q28 33 46 44t48 11q31 0 63 -18l-33 -64q-23 14 -42 14q-44 0 -63 -32t-19 -106v-219h-71v415z" />
    <glyph glyph-name="s" unicode="s" horiz-adv-x="350" 
d="M297 349l-59 -31q-22 41 -57 41q-21 0 -36 -13t-15 -32t13.5 -31.5t71.5 -36.5t82.5 -49.5t24.5 -73.5q0 -57 -41 -96t-100 -39q-106 0 -146 106l63 26q18 -37 36.5 -52t47.5 -15t48 18t19 47q0 24 -14 38.5t-70 38.5t-79.5 47.5t-23.5 65.5q0 50 35 83t89 33
q73 0 111 -75z" />
    <glyph glyph-name="t" unicode="t" horiz-adv-x="214" 
d="M139 349v-349h-71v349h-43v66h43v150h71v-150h74v-66h-74z" />
    <glyph glyph-name="u" unicode="u" horiz-adv-x="465" 
d="M139 415v-242q0 -63 22.5 -91.5t71.5 -28.5t71 28t22 92v242h71v-250q0 -84 -30.5 -117.5t-62 -46.5t-71.5 -13q-81 0 -123 46.5t-42 130.5v250h71z" />
    <glyph glyph-name="v" unicode="v" horiz-adv-x="423" 
d="M88 415l124 -279l123 279h80l-203 -443l-204 443h80z" />
    <glyph glyph-name="w" unicode="w" horiz-adv-x="682" 
d="M88 415l123 -281l130 313l129 -313l124 281h80l-206 -444l-128 309l-128 -309l-204 444h80z" />
    <glyph glyph-name="x" unicode="x" horiz-adv-x="454" 
d="M185 221l-151 194h87l108 -141l109 141h88l-152 -194l172 -221h-86l-131 169l-132 -169h-89z" />
    <glyph glyph-name="y" unicode="y" horiz-adv-x="460" 
d="M199 39l-191 376h82l147 -297l134 297h81l-307 -649h-80z" />
    <glyph glyph-name="z" unicode="z" horiz-adv-x="460" 
d="M152 66h286v-66h-430l301 349h-245v66h387z" />
    <glyph glyph-name="braceleft" unicode="{" horiz-adv-x="291" 
d="M181 580v-187q0 -50 -12.5 -74t-48.5 -43q34 -19 47.5 -45t13.5 -73v-181q0 -58 14 -74t65 -16v-62l-27 -1q-68 0 -96.5 33.5t-28.5 114.5v184q0 44 -12 64t-45 29v59q57 15 57 89v195q0 74 29 106t97 32l26 -1v-62h-7q-45 0 -58.5 -16.5t-13.5 -70.5z" />
    <glyph glyph-name="bar" unicode="|" horiz-adv-x="500" 
d="M213 667h75v-834h-75v834z" />
    <glyph glyph-name="braceright" unicode="}" horiz-adv-x="291" 
d="M110 -26v187q0 50 12.5 74t48.5 42q-34 19 -47.5 45t-13.5 73v181q0 58 -14 74t-65 16v63h27q68 0 96.5 -33.5t28.5 -113.5v-184q0 -44 12.5 -64.5t44.5 -29.5v-59q-57 -14 -57 -88v-196q0 -73 -29 -105t-97 -32h-26v63h7q45 0 58.5 16.5t13.5 70.5z" />
    <glyph glyph-name="asciitilde" unicode="~" horiz-adv-x="667" 
d="M136 582l-43 29q31 63 62 89t75 26q22 0 45 -7t65.5 -26.5t62 -26t37.5 -6.5q29 0 47 14t42 54l45 -26q-30 -60 -64 -86.5t-80 -26.5q-14 0 -20 1t-28 8.5t-30 11t-54.5 24.5t-72.5 21t-47 -17t-42 -56z" />
    <glyph glyph-name="Adieresis" unicode="&#xc4;" horiz-adv-x="620" 
d="M453 189h-285l-80 -189h-81l307 699l300 -699h-82zM424 258l-111 267l-114 -267h225zM222 835q21 0 36 -15t15 -36t-15 -36t-36 -15t-36 15t-15 36t15 36t36 15zM412 835q21 0 36 -15t15 -36t-15 -36t-36 -15t-36 15t-15 36t15 36t36 15z" />
    <glyph glyph-name="Aring" unicode="&#xc5;" horiz-adv-x="620" 
d="M453 189h-285l-80 -189h-81l307 699l300 -699h-82zM424 258l-111 267l-114 -267h225zM316 906q36 0 61.5 -25.5t25.5 -61.5t-25 -62t-62 -26t-62.5 25.5t-25.5 62.5q0 36 25.5 61.5t62.5 25.5zM315 861q-18 0 -30 -12t-12 -31q0 -18 12 -30t30 -12t30.5 12.5t12.5 29.5
q0 18 -12.5 30.5t-30.5 12.5z" />
    <glyph glyph-name="Ccedilla" unicode="&#xc7;" horiz-adv-x="646" 
d="M596 612v-92q-48 46 -96.5 67t-106.5 21q-109 0 -188.5 -81.5t-79.5 -193.5q0 -113 79 -194t191 -81q107 0 201 87v-92q-49 -33 -97 -49t-102 -16q-143 0 -245 101t-102 242q0 143 102 245t246 102q56 0 101 -15t97 -51zM433 -84l-110 -130l-51 26l90 136z" />
    <glyph glyph-name="Eacute" unicode="&#xc9;" horiz-adv-x="482" 
d="M432 598h-270v-199h263v-69h-263v-261h270v-69h-345v667h345v-69zM379 837l-153 -117l-43 32l126 130z" />
    <glyph glyph-name="Ntilde" unicode="&#xd1;" horiz-adv-x="767" 
d="M87 0v695l519 -545v517h75v-697l-519 544v-514h-75zM273 733l-44 36q24 40 44 56t47 16q17 0 31.5 -4t40.5 -16.5t37.5 -16.5t20.5 -4q25 0 47 42l43 -35q-32 -72 -95 -72q-16 0 -25.5 3t-47 20t-55.5 17q-24 0 -44 -42z" />
    <glyph glyph-name="Odieresis" unicode="&#xd6;" horiz-adv-x="794" 
d="M398 678q142 0 244 -101t102 -244q0 -141 -102 -243t-244 -102q-146 0 -247 101t-101 248q0 138 103.5 239.5t244.5 101.5zM397 608q-111 0 -191.5 -79.5t-80.5 -191.5q0 -117 79 -198t193 -81q113 0 192.5 80.5t79.5 193.5q0 115 -79.5 195.5t-192.5 80.5zM302 835
q21 0 36 -15t15 -36t-15 -36t-36 -15t-36 15t-15 36t15 36t36 15zM492 835q21 0 36 -15t15 -36t-15 -36t-36 -15t-36 15t-15 36t15 36t36 15z" />
    <glyph glyph-name="Udieresis" unicode="&#xdc;" horiz-adv-x="649" 
d="M162 667v-409q0 -55 4 -80t21 -52.5t56 -47.5t82 -20q42 0 81 20t55 46.5t21 55.5t5 78v409h75v-429q0 -54 -10 -90.5t-38.5 -73t-80 -61.5t-108.5 -25q-59 0 -110 24t-89.5 74t-38.5 152v429h75zM230 835q21 0 36 -15t15 -36t-15 -36t-36 -15t-36 15t-15 36t15 36t36 15
zM420 835q21 0 36 -15t15 -36t-15 -36t-36 -15t-36 15t-15 36t15 36t36 15z" />
    <glyph glyph-name="aacute" unicode="&#xe1;" horiz-adv-x="524" 
d="M385 415h71v-415h-71v58q-57 -70 -144 -70q-86 0 -142.5 62.5t-56.5 157.5t56 156t143 61q85 0 144 -69v59zM250 360q-57 0 -96 -43t-39 -106q0 -69 38.5 -113.5t97.5 -44.5q63 0 101 43t38 114q0 66 -39 108t-101 42zM398 633l-135 -136l-44 25l105 144z" />
    <glyph glyph-name="agrave" unicode="&#xe0;" horiz-adv-x="524" 
d="M385 415h71v-415h-71v58q-57 -70 -144 -70q-86 0 -142.5 62.5t-56.5 157.5t56 156t143 61q85 0 144 -69v59zM250 360q-57 0 -96 -43t-39 -106q0 -69 38.5 -113.5t97.5 -44.5q63 0 101 43t38 114q0 66 -39 108t-101 42zM112 633l74 33l105 -144l-44 -25z" />
    <glyph glyph-name="acircumflex" unicode="&#xe2;" horiz-adv-x="524" 
d="M385 415h71v-415h-71v58q-57 -70 -144 -70q-86 0 -142.5 62.5t-56.5 157.5t56 156t143 61q85 0 144 -69v59zM250 360q-57 0 -96 -43t-39 -106q0 -69 38.5 -113.5t97.5 -44.5q63 0 101 43t38 114q0 66 -39 108t-101 42zM110 536l138 118l139 -118l-52 -39l-87 75l-88 -75z
" />
    <glyph glyph-name="adieresis" unicode="&#xe4;" horiz-adv-x="524" 
d="M385 415h71v-415h-71v58q-57 -70 -144 -70q-86 0 -142.5 62.5t-56.5 157.5t56 156t143 61q85 0 144 -69v59zM250 360q-57 0 -96 -43t-39 -106q0 -69 38.5 -113.5t97.5 -44.5q63 0 101 43t38 114q0 66 -39 108t-101 42zM168 600q21 0 35.5 -14.5t14.5 -35.5q0 -20 -15 -35
t-35 -15t-35 15t-15 35q0 21 14.5 35.5t35.5 14.5zM342 600q21 0 35.5 -14.5t14.5 -35.5q0 -20 -15 -35t-35 -15t-35 15t-15 35q0 21 14.5 35.5t35.5 14.5z" />
    <glyph glyph-name="atilde" unicode="&#xe3;" horiz-adv-x="524" 
d="M385 415h71v-415h-71v58q-57 -70 -144 -70q-86 0 -142.5 62.5t-56.5 157.5t56 156t143 61q85 0 144 -69v59zM250 360q-57 0 -96 -43t-39 -106q0 -69 38.5 -113.5t97.5 -44.5q63 0 101 43t38 114q0 66 -39 108t-101 42zM137 497l-43 34q25 41 43.5 55.5t46.5 14.5
q16 0 31.5 -4t43 -17t35.5 -16t20 -3q25 0 47 42l42 -34q-32 -71 -94 -71q-13 0 -25.5 4t-49.5 20t-53 16q-15 0 -24 -8t-20 -33z" />
    <glyph glyph-name="aring" unicode="&#xe5;" horiz-adv-x="524" 
d="M385 415h71v-415h-71v58q-57 -70 -144 -70q-86 0 -142.5 62.5t-56.5 157.5t56 156t143 61q85 0 144 -69v59zM250 360q-57 0 -96 -43t-39 -106q0 -69 38.5 -113.5t97.5 -44.5q63 0 101 43t38 114q0 66 -39 108t-101 42zM248 669q36 0 61 -25t25 -61t-25 -61t-61 -25
t-61 25t-25 61t25 61t61 25zM248 625q-17 0 -29.5 -11.5t-12.5 -29.5t12 -30t30 -12t30 12t12 30q0 17 -12 29t-30 12z" />
    <glyph glyph-name="ccedilla" unicode="&#xe7;" horiz-adv-x="435" 
d="M391 385v-94q-63 68 -131 68q-62 0 -104 -44t-42 -109t41 -109t102 -44q42 0 71 15t66 57v-94q-69 -43 -133 -43q-93 0 -156.5 62.5t-63.5 154.5q0 94 63.5 156.5t158.5 62.5q68 0 128 -39zM299 -79l-101 -128l-49 24l84 131z" />
    <glyph glyph-name="eacute" unicode="&#xe9;" horiz-adv-x="481" 
d="M440 193h-324q0 -63 37.5 -101.5t94.5 -38.5q41 0 69.5 19t58.5 68l60 -34q-68 -118 -192 -118q-91 0 -147 61t-56 160q0 95 56.5 155.5t145.5 60.5t143 -60t54 -158v-14zM121 253h244q-10 49 -43 78t-79 29t-80 -30t-42 -77zM376 633l-135 -136l-44 25l105 144z" />
    <glyph glyph-name="egrave" unicode="&#xe8;" horiz-adv-x="481" 
d="M440 193h-324q0 -63 37.5 -101.5t94.5 -38.5q41 0 69.5 19t58.5 68l60 -34q-68 -118 -192 -118q-91 0 -147 61t-56 160q0 95 56.5 155.5t145.5 60.5t143 -60t54 -158v-14zM121 253h244q-10 49 -43 78t-79 29t-80 -30t-42 -77zM104 633l74 33l105 -144l-44 -25z" />
    <glyph glyph-name="ecircumflex" unicode="&#xea;" horiz-adv-x="481" 
d="M440 193h-324q0 -63 37.5 -101.5t94.5 -38.5q41 0 69.5 19t58.5 68l60 -34q-68 -118 -192 -118q-91 0 -147 61t-56 160q0 95 56.5 155.5t145.5 60.5t143 -60t54 -158v-14zM121 253h244q-10 49 -43 78t-79 29t-80 -30t-42 -77zM102 536l138 118l139 -118l-52 -39l-87 75
l-88 -75z" />
    <glyph glyph-name="edieresis" unicode="&#xeb;" horiz-adv-x="481" 
d="M440 193h-324q0 -63 37.5 -101.5t94.5 -38.5q41 0 69.5 19t58.5 68l60 -34q-68 -118 -192 -118q-91 0 -147 61t-56 160q0 95 56.5 155.5t145.5 60.5t143 -60t54 -158v-14zM121 253h244q-10 49 -43 78t-79 29t-80 -30t-42 -77zM153 600q21 0 35.5 -14.5t14.5 -35.5
q0 -20 -15 -35t-35 -15t-35 15t-15 35q0 21 14.5 35.5t35.5 14.5zM327 600q21 0 35.5 -14.5t14.5 -35.5q0 -20 -15 -35t-35 -15t-35 15t-15 35q0 21 14.5 35.5t35.5 14.5z" />
    <glyph glyph-name="iacute" unicode="&#xed;" horiz-adv-x="229" 
d="M150 415v-415h-71v415h71zM251 633l-135 -136l-44 25l105 144z" />
    <glyph glyph-name="igrave" unicode="&#xec;" horiz-adv-x="229" 
d="M150 415v-415h-71v415h71zM-22 633l74 33l105 -144l-44 -25z" />
    <glyph glyph-name="icircumflex" unicode="&#xee;" horiz-adv-x="229" 
d="M150 415v-415h-71v415h71zM-24 536l138 118l139 -118l-52 -39l-87 75l-88 -75z" />
    <glyph glyph-name="idieresis" unicode="&#xef;" horiz-adv-x="229" 
d="M150 415v-415h-71v415h71zM44 600q21 0 35.5 -14.5t14.5 -35.5q0 -20 -15 -35t-35 -15t-35 15t-15 35q0 21 14.5 35.5t35.5 14.5zM185 600q21 0 35.5 -14.5t14.5 -35.5q0 -20 -15 -35t-35 -15t-35 15t-15 35q0 21 14.5 35.5t35.5 14.5z" />
    <glyph glyph-name="ntilde" unicode="&#xf1;" horiz-adv-x="469" 
d="M68 415h71v-50q26 32 54 46t66 14t69.5 -15t52 -47t20.5 -106v-257h-71v245q0 65 -19.5 90.5t-68.5 25.5q-54 0 -78.5 -36.5t-24.5 -117.5v-207h-71v415zM123 497l-43 34q25 41 43.5 55.5t46.5 14.5q16 0 31.5 -4t43 -17t35.5 -16t20 -3q25 0 47 42l42 -34
q-32 -71 -94 -71q-13 0 -25.5 4t-49.5 20t-53 16q-15 0 -24 -8t-20 -33z" />
    <glyph glyph-name="oacute" unicode="&#xf3;" horiz-adv-x="521" 
d="M260 424q92 0 156 -63t64 -155q0 -93 -63.5 -155.5t-156.5 -62.5t-156 64t-63 158q0 88 64 151t155 63zM259 359q-63 0 -104 -43t-41 -110q0 -66 41.5 -109.5t103.5 -43.5q64 0 106 43t42 110q0 68 -41.5 110.5t-106.5 42.5zM396 633l-135 -136l-44 25l105 144z" />
    <glyph glyph-name="ograve" unicode="&#xf2;" horiz-adv-x="521" 
d="M260 424q92 0 156 -63t64 -155q0 -93 -63.5 -155.5t-156.5 -62.5t-156 64t-63 158q0 88 64 151t155 63zM259 359q-63 0 -104 -43t-41 -110q0 -66 41.5 -109.5t103.5 -43.5q64 0 106 43t42 110q0 68 -41.5 110.5t-106.5 42.5zM124 633l74 33l105 -144l-44 -25z" />
    <glyph glyph-name="ocircumflex" unicode="&#xf4;" horiz-adv-x="521" 
d="M260 424q92 0 156 -63t64 -155q0 -93 -63.5 -155.5t-156.5 -62.5t-156 64t-63 158q0 88 64 151t155 63zM259 359q-63 0 -104 -43t-41 -110q0 -66 41.5 -109.5t103.5 -43.5q64 0 106 43t42 110q0 68 -41.5 110.5t-106.5 42.5zM122 536l138 118l139 -118l-52 -39l-87 75
l-88 -75z" />
    <glyph glyph-name="odieresis" unicode="&#xf6;" horiz-adv-x="521" 
d="M260 424q92 0 156 -63t64 -155q0 -93 -63.5 -155.5t-156.5 -62.5t-156 64t-63 158q0 88 64 151t155 63zM259 359q-63 0 -104 -43t-41 -110q0 -66 41.5 -109.5t103.5 -43.5q64 0 106 43t42 110q0 68 -41.5 110.5t-106.5 42.5zM173 600q21 0 35.5 -14.5t14.5 -35.5
q0 -20 -15 -35t-35 -15t-35 15t-15 35q0 21 14.5 35.5t35.5 14.5zM347 600q21 0 35.5 -14.5t14.5 -35.5q0 -20 -15 -35t-35 -15t-35 15t-15 35q0 21 14.5 35.5t35.5 14.5z" />
    <glyph glyph-name="otilde" unicode="&#xf5;" horiz-adv-x="521" 
d="M260 424q92 0 156 -63t64 -155q0 -93 -63.5 -155.5t-156.5 -62.5t-156 64t-63 158q0 88 64 151t155 63zM259 359q-63 0 -104 -43t-41 -110q0 -66 41.5 -109.5t103.5 -43.5q64 0 106 43t42 110q0 68 -41.5 110.5t-106.5 42.5zM149 497l-43 34q25 41 43.5 55.5t46.5 14.5
q16 0 31.5 -4t43 -17t35.5 -16t20 -3q25 0 47 42l42 -34q-32 -71 -94 -71q-13 0 -25.5 4t-49.5 20t-53 16q-15 0 -24 -8t-20 -33z" />
    <glyph glyph-name="uacute" unicode="&#xfa;" horiz-adv-x="465" 
d="M139 415v-242q0 -63 22.5 -91.5t71.5 -28.5t71 28t22 92v242h71v-250q0 -84 -30.5 -117.5t-62 -46.5t-71.5 -13q-81 0 -123 46.5t-42 130.5v250h71zM369 633l-135 -136l-44 25l105 144z" />
    <glyph glyph-name="ugrave" unicode="&#xf9;" horiz-adv-x="465" 
d="M139 415v-242q0 -63 22.5 -91.5t71.5 -28.5t71 28t22 92v242h71v-250q0 -84 -30.5 -117.5t-62 -46.5t-71.5 -13q-81 0 -123 46.5t-42 130.5v250h71zM96 633l74 33l105 -144l-44 -25z" />
    <glyph glyph-name="ucircumflex" unicode="&#xfb;" horiz-adv-x="465" 
d="M139 415v-242q0 -63 22.5 -91.5t71.5 -28.5t71 28t22 92v242h71v-250q0 -84 -30.5 -117.5t-62 -46.5t-71.5 -13q-81 0 -123 46.5t-42 130.5v250h71zM94 536l138 118l139 -118l-52 -39l-87 75l-88 -75z" />
    <glyph glyph-name="udieresis" unicode="&#xfc;" horiz-adv-x="465" 
d="M139 415v-242q0 -63 22.5 -91.5t71.5 -28.5t71 28t22 92v242h71v-250q0 -84 -30.5 -117.5t-62 -46.5t-71.5 -13q-81 0 -123 46.5t-42 130.5v250h71zM145 600q21 0 35.5 -14.5t14.5 -35.5q0 -20 -15 -35t-35 -15t-35 15t-15 35q0 21 14.5 35.5t35.5 14.5zM319 600
q21 0 35.5 -14.5t14.5 -35.5q0 -20 -15 -35t-35 -15t-35 15t-15 35q0 21 14.5 35.5t35.5 14.5z" />
    <glyph glyph-name="dagger" unicode="&#x2020;" 
d="M247 729h72v-164h148v-69h-148v-672h-72v672h-147v69h147v164z" />
    <glyph glyph-name="degree" unicode="&#xb0;" 
d="M284 677q56 0 94.5 -38.5t38.5 -94.5t-39 -95t-94 -39q-56 0 -95 39t-39 95q0 55 39 94t95 39zM284 624q-34 0 -57.5 -23.5t-23.5 -57.5q0 -33 23.5 -56.5t57.5 -23.5q33 0 56.5 23.5t23.5 56.5q0 34 -23.5 57.5t-56.5 23.5z" />
    <glyph glyph-name="cent" unicode="&#xa2;" 
d="M342 650v-93q32 -3 54 -11t52 -27v-94q-30 33 -52.5 47.5t-53.5 19.5v-304q32 6 54.5 20t54.5 51v-94q-33 -21 -59 -31.5t-50 -10.5v-99h-58v100q-80 11 -133 71.5t-53 143.5t53 145t133 72v94h58zM284 189v301q-49 -10 -81 -52.5t-32 -97.5q0 -56 31.5 -98t81.5 -53z
" />
    <glyph glyph-name="sterling" unicode="&#xa3;" 
d="M261 293h126v-57h-106q4 -13 5 -24t1 -16q0 -42 -29 -95l58 -20q35 -12 49 -15.5t26 -3.5q24 0 40.5 13.5t39.5 51.5l60 -36q-52 -102 -136 -102q-38 0 -94 20t-76.5 25t-34.5 5q-25 0 -41.5 -11t-38.5 -42l-57 39q56 86 129 86q29 43 29 83q0 15 -7 42h-112v57h88
l-29 57q-26 49 -35 78t-9 62q0 78 57 132t140 54q87 0 140.5 -53.5t53.5 -144.5l-73 -20q0 27 -2 38t-11 39.5t-38 48.5t-68 20q-53 0 -88.5 -33.5t-35.5 -85.5q0 -26 11 -55.5t33.5 -70t25.5 -46t9 -20.5z" />
    <glyph glyph-name="section" unicode="&#xa7;" 
d="M103 2h72q0 -61 25 -89t76 -28q48 0 74 27t26 75q0 54 -28.5 72t-43 24.5t-77.5 31t-94.5 62t-31.5 101.5q0 113 100 157q-84 48 -84 136q0 72 50 119t127 47q47 0 85.5 -21t54.5 -51.5t22.5 -55.5t6.5 -61h-71q0 61 -25 91t-73 30q-47 0 -76 -28t-29 -75q0 -45 25 -63.5
t38 -24t79 -28.5t100.5 -62.5t34.5 -108.5q0 -52 -23.5 -88.5t-76.5 -68.5q46 -27 64.5 -58t18.5 -81q0 -75 -48 -121t-127 -46q-171 0 -171 186zM283 389q-44 0 -76 -32t-32 -77t32 -77t76 -32t76 32t32 77t-31 77t-77 32z" />
    <glyph glyph-name="bullet" unicode="&#x2022;" horiz-adv-x="667" 
d="M336 477q57 0 97 -40t40 -98q0 -57 -40 -98t-97 -41q-59 0 -99.5 40.5t-40.5 98.5q0 57 40.5 97.5t99.5 40.5z" />
    <glyph glyph-name="paragraph" unicode="&#xb6;" 
d="M212 -99v427h-15q-69 0 -112.5 46.5t-43.5 120.5q0 83 49.5 127.5t143.5 44.5h287l-33 -58h-44v-708h-63v708h-106v-708h-63z" />
    <glyph glyph-name="germandbls" unicode="&#xdf;" horiz-adv-x="524" 
d="M68 0v349h-39v66h39v138q0 89 46 138t129 49q74 0 122.5 -47.5t48.5 -119.5q0 -88 -74 -128q66 -25 104 -82t38 -131q0 -102 -72 -173t-181 -71v70q81 0 130.5 50.5t49.5 126.5q0 45 -20 82t-48.5 53.5t-50.5 23.5t-61 12v64q54 0 83 28t29 79q0 42 -28 70t-72 28
q-32 0 -55.5 -13t-35 -38t-11.5 -104v-520h-71z" />
    <glyph glyph-name="registered" unicode="&#xae;" horiz-adv-x="740" 
d="M390 307l122 -177h-70l-103 151v-151h-57v400h68q132 0 132 -114q0 -93 -92 -109zM339 359h18q67 0 67 58t-72 58h-13v-116zM375 678q139 0 239 -102t100 -243q0 -143 -100.5 -243.5t-243.5 -100.5t-244 100t-101 244q0 145 101 245t249 100zM374 622
q-124 0 -208.5 -83.5t-84.5 -205.5q0 -120 84 -204t205 -84q120 0 204 84t84 204q0 117 -84 203t-200 86z" />
    <glyph glyph-name="copyright" unicode="&#xa9;" horiz-adv-x="740" 
d="M523 478v-85q-21 25 -28 33t-31 30.5t-81 22.5q-59 0 -104 -45t-45 -105q0 -62 44 -106t108 -44q24 0 49.5 10t40 22.5t23 22.5t24.5 28v-84q-35 -28 -69 -41t-70 -13q-86 0 -147 61t-61 147q0 83 62 143t146 60q72 0 139 -57zM375 678q139 0 239 -102t100 -243
q0 -143 -100.5 -243.5t-243.5 -100.5t-244 100t-101 244q0 145 101 245t249 100zM374 622q-124 0 -208.5 -83.5t-84.5 -205.5q0 -120 84 -204t205 -84q120 0 204 84t84 204q0 117 -84 203t-200 86z" />
    <glyph glyph-name="trademark" unicode="&#x2122;" horiz-adv-x="721" 
d="M142 622v-335h-48v335h-90v45h230v-45h-92zM270 287l65 405l143 -316l147 316l61 -405h-47l-34 258l-127 -277l-125 277l-37 -258h-46z" />
    <glyph glyph-name="acute" unicode="&#xb4;" horiz-adv-x="500" 
d="M386 633l-135 -136l-44 25l105 144z" />
    <glyph glyph-name="dieresis" unicode="&#xa8;" horiz-adv-x="500" 
d="M163 600q21 0 35.5 -14.5t14.5 -35.5q0 -20 -15 -35t-35 -15t-35 15t-15 35q0 21 14.5 35.5t35.5 14.5zM337 600q21 0 35.5 -14.5t14.5 -35.5q0 -20 -15 -35t-35 -15t-35 15t-15 35q0 21 14.5 35.5t35.5 14.5z" />
    <glyph glyph-name="notequal" unicode="&#x2260;" horiz-adv-x="500" 
d="M271 449l55 112l52 -21l-44 -91h133v-67h-164l-44 -91h208v-67h-239l-55 -114l-51 22l44 92h-133v67h164l44 91h-208v67h238z" />
    <glyph glyph-name="AE" unicode="&#xc6;" horiz-adv-x="898" 
d="M458 187h-284l-79 -187h-82l297 667h293l29 -69h-269l83 -200h263l30 -69h-263l108 -260h271l30 -69h-349zM429 256l-111 263l-112 -263h223z" />
    <glyph glyph-name="Oslash" unicode="&#xd8;" horiz-adv-x="800" 
d="M50 37l81 80q-75 97 -75 215q0 143 102.5 244.5t245.5 101.5q114 0 214 -75l81 80l49 -50l-79 -79q81 -102 81 -221q0 -141 -102 -243t-244 -102q-122 0 -223 80l-81 -81zM185 168l381 386q-77 54 -163 54q-114 0 -193 -80t-79 -196q0 -92 54 -164zM617 504l-382 -387
q75 -59 168 -59q113 0 192.5 80.5t79.5 193.5q0 92 -58 172z" />
    <glyph glyph-name="infinity" unicode="&#x221e;" horiz-adv-x="667" 
d="M335 290q-73 -104 -164 -104q-67 0 -110 43t-43 111t43 111t110 43q90 0 161 -103q70 103 165 103q67 0 109 -43t42 -112q0 -67 -42 -110t-108 -43q-93 0 -163 104zM371 340q30 -48 58 -69t60 -21q38 0 61.5 25.5t23.5 66.5q0 38 -24 63t-62 25q-48 0 -91 -52l-19 -26z
M295 340q-56 90 -118 90q-38 0 -61.5 -25.5t-23.5 -65.5q0 -39 24 -64t62 -25q48 0 91 52l19 26z" />
    <glyph glyph-name="plusminus" unicode="&#xb1;" 
d="M48 310v61h205v201h61v-201h205v-61h-205v-195h-61v195h-205zM48 0v61h471v-61h-471z" />
    <glyph glyph-name="lessequal" unicode="&#x2264;" horiz-adv-x="500" 
d="M466 612v-72l-353 -156l353 -157v-71l-433 194v65zM466 126v-70h-433v70h433z" />
    <glyph glyph-name="greaterequal" unicode="&#x2265;" horiz-adv-x="500" 
d="M33 156v71l353 157l-353 156v72l433 -197v-65zM33 56v70h433v-70h-433z" />
    <glyph glyph-name="yen" unicode="&#xa5;" 
d="M375 383l-50 -87h192v-57h-198v-239h-75v239h-194v57h188l-49 87h-139v57h106l-130 227h86l170 -298l172 298h87l-133 -227h109v-57h-142z" />
    <glyph glyph-name="mu" unicode="&#xb5;" horiz-adv-x="465" 
d="M139 -234h-71v649h71v-253q0 -109 93 -109q50 0 72 28t22 92v242h71v-250q0 -84 -42 -130.5t-123 -46.5q-53 0 -96 31z" />
    <glyph glyph-name="partialdiff" unicode="&#x2202;" horiz-adv-x="500" 
d="M84 604l10 66q88 -12 143 -35.5t144 -106.5t89 -282q0 -116 -60 -186.5t-159 -70.5q-91 0 -156 66t-65 159t60.5 156.5t148.5 63.5q47 0 79.5 -16t65.5 -56l-6 16q-30 70 -58 104.5t-74 62t-80 40t-82 19.5zM255 377q-63 0 -106 -48t-43 -119q0 -67 42 -115t102 -48
q62 0 103 49t41 123q0 67 -39.5 112.5t-99.5 45.5z" />
    <glyph glyph-name="summation" unicode="&#x3a3;" horiz-adv-x="667" 
d="M599 750v-229h-68l-7 158h-412l252 -409l-252 -450h421l4 158h72v-228h-581v79l248 441l-248 402v78h571z" />
    <glyph glyph-name="product" unicode="&#x220f;" horiz-adv-x="700" 
d="M37 750h627v-70h-80v-860h80v-70h-237v70h82v860h-318v-860h82v-70h-236v70h79v860h-79v70z" />
    <glyph glyph-name="pi" unicode="&#x3c0;" horiz-adv-x="584" 
d="M102 0v411h-74v68h527v-68h-73v-411h-75v411h-230v-411h-75z" />
    <glyph glyph-name="integral" unicode="&#x222b;" horiz-adv-x="500" 
d="M94 -239l16 67q27 -11 48 -11q45 0 53 48l2 74v609v44q0 47 4 67t26 55.5t96 35.5q29 0 68 -10l-16 -67q-27 9 -46 9q-47 0 -55 -47l-2 -56v-51v-576q0 -82 -3.5 -106t-26.5 -59.5t-105 -35.5q-19 0 -32 2t-27 8z" />
    <glyph glyph-name="ordfeminine" unicode="&#xaa;" horiz-adv-x="358" 
d="M27 300v47h287v-47h-287zM253 664h47v-250h-47v31q-35 -38 -88 -38q-55 0 -90 38t-35 97q0 54 36 91t90 37q52 0 87 -38v32zM171 629q-35 0 -59 -25t-24 -62q0 -41 23 -67t60 -26q39 0 62 25t23 67q0 39 -23.5 63.5t-61.5 24.5z" />
    <glyph glyph-name="ordmasculine" unicode="&#xba;" horiz-adv-x="358" 
d="M179 670q58 0 98 -38t40 -94t-39 -94t-99 -38q-57 0 -97 38t-40 94q0 54 40 93t97 39zM178 629q-39 0 -63.5 -25.5t-24.5 -65.5q0 -38 25 -64t63 -26q39 0 65 25t26 65q0 41 -25 66t-66 25zM36 300v47h287v-47h-287z" />
    <glyph glyph-name="Omega" unicode="&#x3a9;" horiz-adv-x="667" 
d="M28 0v66h178q-178 104 -178 297q0 135 87.5 227.5t217.5 92.5q129 0 217 -92t88 -228q0 -192 -178 -297h178v-66h-261v60q185 105 185 294q0 110 -66 186t-163 76t-163 -75t-66 -187q0 -190 185 -294v-60h-261z" />
    <glyph glyph-name="ae" unicode="&#xe6;" horiz-adv-x="772" 
d="M730 193h-325q0 -63 37.5 -101.5t96.5 -38.5q75 0 126 88l60 -36q-37 -61 -81.5 -89t-105.5 -28q-108 0 -163 83q-26 -43 -63 -63t-93 -20q-80 0 -129 37t-49 97q0 62 47.5 100.5t125.5 38.5q62 0 118 -36q0 136 -118 136q-31 0 -58 -5t-70 -20v67q46 13 75 18t57 5
q54 0 95 -22t59 -62q23 38 66.5 61t93.5 23q93 0 145.5 -62.5t52.5 -170.5zM411 254h243q-9 50 -40.5 78.5t-79.5 28.5q-99 0 -123 -107zM222 196q-51 0 -81 -19t-30 -53q0 -32 29.5 -51.5t76.5 -19.5q49 0 80 21t31 54q0 29 -30.5 48.5t-75.5 19.5z" />
    <glyph glyph-name="oslash" unicode="&#xf8;" horiz-adv-x="559" 
d="M41 15l62 62q-41 58 -41 129q0 92 63 155t155 63q39 0 68 -9t63 -32l61 61l45 -44l-61 -61q44 -59 44 -133q0 -93 -63.5 -155.5t-156.5 -62.5q-69 0 -131 43l-62 -61zM154 125l208 212q-22 12 -40.5 17t-41.5 5q-63 0 -104 -43t-41 -111q0 -41 19 -80zM406 292l-209 -215
q39 -24 82 -24q64 0 106 43t42 110q0 45 -21 86z" />
    <glyph glyph-name="questiondown" unicode="&#xbf;" horiz-adv-x="436" 
d="M147 223h-72q0 71 39 112t105 41q62 0 103 -41t41 -103q0 -96 -81.5 -122t-94.5 -31t-35 -22.5t-22 -61.5q0 -40 25 -66t66 -26q37 0 62 24t25 61q0 12 -1 19.5t-5 25.5h73q3 -19 4 -27t1 -23q0 -63 -47 -106t-116 -43q-68 0 -114 46t-46 114q0 41 16.5 75.5t39.5 50
t41 22.5t77 24t59 71q0 31 -20.5 51.5t-51.5 20.5q-71 0 -71 -86zM219 519q21 0 35 -14t14 -36q0 -21 -14 -35t-35 -14t-35.5 14.5t-14.5 34.5q0 21 14.5 35.5t35.5 14.5z" />
    <glyph glyph-name="exclamdown" unicode="&#xa1;" horiz-adv-x="277" 
d="M139 520q21 0 35 -14t14 -35t-14 -35t-35 -14t-35 14t-14 35t14 35t35 14zM175 375v-531h-72v531h72z" />
    <glyph glyph-name="logicalnot" unicode="&#xac;" horiz-adv-x="500" 
d="M391 0v197h-358v70h433v-267h-75z" />
    <glyph glyph-name="radical" unicode="&#x221a;" horiz-adv-x="667" 
d="M667 829v-70h-196l-213 -759h-93l-81 298h-84v70h145l36 -127l14 -66l14 -73h6l9 42l5 21l4 22l8 35l17 72l13 49l14 50l14 50l108 386h260z" />
    <glyph glyph-name="florin" unicode="&#x192;" 
d="M331 403h107l-10 -60h-108l-52 -288q-15 -81 -30 -117t-54.5 -69t-118.5 -33l-46 3l14 67l30 -1q60 0 88 32t44 121l52 285h-72l9 60h74l27 150q14 77 48.5 112t97.5 35q15 0 27 -2t33 -9l-14 -67q-24 11 -47 11q-33 0 -48 -20.5t-26 -79.5z" />
    <glyph glyph-name="approxequal" unicode="&#x2248;" horiz-adv-x="500" 
d="M54 347l-44 29q28 61 60.5 88.5t76.5 27.5q22 0 45 -7t65.5 -26.5t62 -26t37.5 -6.5q28 0 46.5 14t42.5 54l45 -27q-30 -60 -64 -86.5t-80 -26.5q-15 0 -21 1t-31 9.5t-43 17t-51.5 23.5t-58.5 15q-49 0 -88 -73zM54 179l-44 29q28 61 60.5 88.5t76.5 27.5q22 0 45 -7
t65 -26.5t62.5 -26t37.5 -6.5q28 0 46.5 14t42.5 54l45 -27q-56 -113 -145 -113q-15 0 -21 1.5t-29.5 9t-42.5 16.5t-52 24t-59 15q-49 0 -88 -73z" />
    <glyph glyph-name="Delta" unicode="&#x2206;" horiz-adv-x="667" 
d="M27 0l265 667h80l268 -667h-613zM135 70h396l-198 506z" />
    <glyph glyph-name="guillemotleft" unicode="&#xab;" horiz-adv-x="431" 
d="M262 213l119 -147l-46 -37l-149 184l149 187l46 -36zM114 213l119 -147l-47 -37l-149 184l149 187l47 -36z" />
    <glyph glyph-name="guillemotright" unicode="&#xbb;" horiz-adv-x="431" 
d="M169 213l-119 151l47 36l149 -187l-149 -184l-47 37zM318 213l-119 151l46 36l149 -187l-149 -184l-46 37z" />
    <glyph glyph-name="ellipsis" unicode="&#x2026;" horiz-adv-x="746" 
d="M124 88q21 0 35 -14t14 -35t-14 -35t-35 -14t-35 14t-14 35t14 35t35 14zM373 88q21 0 35 -14t14 -35t-14 -35t-35 -14t-35 14t-14 35t14 35t35 14zM621 88q21 0 35 -14t14 -35t-14 -35t-35 -14t-35 14t-14 35t14 35t35 14z" />
    <glyph glyph-name="nonbreakingspace" unicode="&#xa0;" horiz-adv-x="500" 
 />
    <glyph glyph-name="Agrave" unicode="&#xc0;" horiz-adv-x="620" 
d="M453 189h-285l-80 -189h-81l307 699l300 -699h-82zM424 258l-111 267l-114 -267h225zM159 837l70 45l127 -130l-43 -32z" />
    <glyph glyph-name="Atilde" unicode="&#xc3;" horiz-adv-x="620" 
d="M453 189h-285l-80 -189h-81l307 699l300 -699h-82zM424 258l-111 267l-114 -267h225zM199 733l-44 36q24 40 44 56t47 16q17 0 31.5 -4t40.5 -16.5t37.5 -16.5t20.5 -4q25 0 47 42l43 -35q-32 -72 -95 -72q-16 0 -25.5 3t-47 20t-55.5 17q-24 0 -44 -42z" />
    <glyph glyph-name="Otilde" unicode="&#xd5;" horiz-adv-x="794" 
d="M398 678q142 0 244 -101t102 -244q0 -141 -102 -243t-244 -102q-146 0 -247 101t-101 248q0 138 103.5 239.5t244.5 101.5zM397 608q-111 0 -191.5 -79.5t-80.5 -191.5q0 -117 79 -198t193 -81q113 0 192.5 80.5t79.5 193.5q0 115 -79.5 195.5t-192.5 80.5zM286 733
l-44 36q24 40 44 56t47 16q17 0 31.5 -4t40.5 -16.5t37.5 -16.5t20.5 -4q25 0 47 42l43 -35q-32 -72 -95 -72q-16 0 -25.5 3t-47 20t-55.5 17q-24 0 -44 -42z" />
    <glyph glyph-name="OE" unicode="&#x152;" horiz-adv-x="1056" 
d="M1006 598h-266v-199h259v-69h-259v-261h266v-69h-341v128q-101 -140 -270 -140q-140 0 -242.5 101.5t-102.5 242.5q0 142 101 244t242 102q86 0 152 -34t120 -108v131h341v-69zM393 608q-108 0 -188 -81t-80 -192q0 -115 79 -196t190 -81q112 0 191.5 80.5t79.5 192.5
q0 116 -79.5 196.5t-192.5 80.5z" />
    <glyph glyph-name="oe" unicode="&#x153;" horiz-adv-x="851" 
d="M809 194h-327q0 -61 38 -101t95 -40q82 0 128 88l60 -35q-67 -118 -190 -118q-55 0 -102.5 27t-69.5 72q-62 -99 -183 -99q-90 0 -153.5 63.5t-63.5 153.5q0 93 64.5 156.5t158.5 63.5q57 0 103.5 -26t73.5 -73q49 99 169 99q89 0 144 -59t55 -157v-15zM488 254h246
q-22 106 -124 106q-97 0 -122 -106zM262 360q-65 0 -106.5 -42.5t-41.5 -107.5q0 -69 40 -113t104 -44q65 0 106.5 42.5t41.5 108.5q0 69 -40.5 112.5t-103.5 43.5z" />
    <glyph glyph-name="endash" unicode="&#x2013;" 
d="M117 245h333v-64h-333v64z" />
    <glyph glyph-name="emdash" unicode="&#x2014;" horiz-adv-x="544" 
d="M0 245h544v-64h-544v64z" />
    <glyph glyph-name="quotedblleft" unicode="&#x201c;" horiz-adv-x="408" 
d="M269 451l-66 24l101 225l48 -19zM122 451l-65 24l100 225l48 -19z" />
    <glyph glyph-name="quotedblright" unicode="&#x201d;" horiz-adv-x="408" 
d="M140 700l65 -24l-100 -225l-48 19zM286 700l66 -24l-101 -225l-48 19z" />
    <glyph glyph-name="quoteleft" unicode="&#x2018;" horiz-adv-x="261" 
d="M122 451l-65 24l100 225l48 -19z" />
    <glyph glyph-name="quoteright" unicode="&#x2019;" horiz-adv-x="262" 
d="M140 700l65 -24l-100 -225l-48 19z" />
    <glyph glyph-name="divide" unicode="&#xf7;" 
d="M48 310v61h471v-61h-471zM284 256q20 0 33.5 -13.5t13.5 -33.5t-13.5 -33.5t-33.5 -13.5t-33.5 13.5t-13.5 33.5t13.5 33.5t33.5 13.5zM284 518q20 0 33.5 -13.5t13.5 -33.5t-13.5 -33.5t-33.5 -13.5t-33.5 13.5t-13.5 33.5t13.5 33.5t33.5 13.5z" />
    <glyph glyph-name="lozenge" unicode="&#x25ca;" horiz-adv-x="667" 
d="M334 693l259 -359l-259 -360l-260 360zM334 554l-161 -220l161 -220l160 220z" />
    <glyph glyph-name="ydieresis" unicode="&#xff;" horiz-adv-x="460" 
d="M199 39l-191 376h82l147 -297l134 297h81l-307 -649h-80zM143 600q21 0 35.5 -14.5t14.5 -35.5q0 -20 -15 -35t-35 -15t-35 15t-15 35q0 21 14.5 35.5t35.5 14.5zM317 600q21 0 35.5 -14.5t14.5 -35.5q0 -20 -15 -35t-35 -15t-35 15t-15 35q0 21 14.5 35.5t35.5 14.5z
" />
    <glyph glyph-name="Ydieresis" unicode="&#x178;" horiz-adv-x="528" 
d="M225 287l-218 380h86l170 -298l172 298h87l-222 -380v-287h-75v287zM169 835q21 0 36 -15t15 -36t-15 -36t-36 -15t-36 15t-15 36t15 36t36 15zM359 835q21 0 36 -15t15 -36t-15 -36t-36 -15t-36 15t-15 36t15 36t36 15z" />
    <glyph glyph-name="fraction" unicode="&#x2215;" horiz-adv-x="140" 
d="M245 680l39 -21l-388 -672l-39 23z" />
    <glyph glyph-name="currency" unicode="&#xa4;" horiz-adv-x="667" 
d="M55 123l95 94q-27 39 -39.5 72.5t-12.5 69.5q0 41 10 70.5t40 71.5l-95 95l41 42l96 -95q45 30 75.5 41t69.5 11q66 0 142 -51l95 94l41 -42l-94 -94q28 -42 39 -73t11 -70t-9.5 -66.5t-40.5 -73.5l95 -96l-40 -41l-96 95q-43 -30 -73 -40.5t-71 -10.5q-39 0 -67.5 9.5
t-75.5 40.5l-95 -94zM334 529q-70 0 -119 -49t-49 -120q0 -70 49 -119t119 -49q69 0 118.5 49.5t49.5 118.5t-49 119t-119 50z" />
    <glyph glyph-name="guilsinglleft" unicode="&#x2039;" horiz-adv-x="282" 
d="M114 213l119 -147l-47 -37l-149 184l149 187l47 -36z" />
    <glyph glyph-name="guilsinglright" unicode="&#x203a;" horiz-adv-x="282" 
d="M169 213l-119 151l47 36l149 -187l-150 -184l-46 37z" />
    <glyph glyph-name="fi" unicode="&#xf001;" horiz-adv-x="447" 
d="M139 349v-349h-71v349h-39v66h39v176q0 149 121 149q19 0 23.5 -0.5t31.5 -7.5v-72q-28 9 -48 9q-33 0 -45 -19.5t-12 -74.5v-160h105v-66h-105zM379 415v-415h-71v415h71zM343 623q21 0 36 -15t15 -36t-15 -36t-36 -15t-36 15t-15 36t15 36t36 15z" />
    <glyph glyph-name="fl" unicode="&#xf002;" horiz-adv-x="447" 
d="M139 349v-349h-71v349h-39v66h39v176q0 149 121 149q19 0 23.5 -0.5t31.5 -7.5v-72q-17 5 -27 7t-21 2q-33 0 -45 -19.5t-12 -74.5v-160h105v-66h-105zM379 729v-729h-71v729h71z" />
    <glyph glyph-name="daggerdbl" unicode="&#x2021;" 
d="M247 729h73v-164h147v-69h-147v-302h147v-69h-147v-301h-73v301h-147v69h147v302h-147v69h147v164z" />
    <glyph glyph-name="periodcentered" unicode="&#xb7;" horiz-adv-x="225" 
d="M112 263q21 0 35.5 -14.5t14.5 -35.5t-14 -35t-36 -14q-21 0 -35 14t-14 35t14.5 35.5t34.5 14.5z" />
    <glyph glyph-name="periodcentered" unicode="&#x2219;" horiz-adv-x="225" 
d="M112 263q21 0 35.5 -14.5t14.5 -35.5t-14 -35t-36 -14q-21 0 -35 14t-14 35t14.5 35.5t34.5 14.5z" />
    <glyph glyph-name="quotesinglbase" unicode="&#x201a;" horiz-adv-x="252" 
d="M129 100l65 -24l-100 -225l-48 19z" />
    <glyph glyph-name="quotedblbase" unicode="&#x201e;" horiz-adv-x="408" 
d="M140 98l65 -24l-100 -226l-48 19zM286 98l66 -24l-101 -226l-48 19z" />
    <glyph glyph-name="perthousand" unicode="&#x2030;" horiz-adv-x="1078" 
d="M182 674q62 0 105 -42t43 -104q0 -60 -43.5 -102.5t-104.5 -42.5q-62 0 -105.5 42.5t-43.5 102.5q0 61 43.5 103.5t105.5 42.5zM182 619q-38 0 -64 -26t-26 -64t26 -64t64 -26q37 0 63 26t26 64t-26 64t-63 26zM532 680l39 -22l-389 -671l-38 23zM534 284q62 0 105 -42
t43 -104q0 -60 -43.5 -102.5t-104.5 -42.5q-63 0 -106 42t-43 103t43.5 103.5t105.5 42.5zM534 229q-38 0 -64 -26t-26 -64t26 -64t64 -26q37 0 63 26t26 64t-26 64t-63 26zM896 284q62 0 105 -42t43 -104q0 -60 -43.5 -102.5t-104.5 -42.5q-62 0 -105.5 42.5t-43.5 102.5
q0 61 43.5 103.5t105.5 42.5zM896 229q-38 0 -64 -26t-26 -64t26 -64t64 -26q37 0 63 26t26 64t-26 64t-63 26z" />
    <glyph glyph-name="Acircumflex" unicode="&#xc2;" horiz-adv-x="620" 
d="M453 189h-285l-80 -189h-81l307 699l300 -699h-82zM424 258l-111 267l-114 -267h225zM177 762l139 119l141 -119l-53 -41l-88 76l-87 -76z" />
    <glyph glyph-name="Ecircumflex" unicode="&#xca;" horiz-adv-x="482" 
d="M432 598h-270v-199h263v-69h-263v-261h270v-69h-345v667h345v-69zM120 762l139 119l141 -119l-53 -41l-88 76l-87 -76z" />
    <glyph glyph-name="Aacute" unicode="&#xc1;" horiz-adv-x="620" 
d="M453 189h-285l-80 -189h-81l307 699l300 -699h-82zM424 258l-111 267l-114 -267h225zM468 837l-153 -117l-43 32l126 130z" />
    <glyph glyph-name="Edieresis" unicode="&#xcb;" horiz-adv-x="482" 
d="M432 598h-270v-199h263v-69h-263v-261h270v-69h-345v667h345v-69zM166 835q21 0 36 -15t15 -36t-15 -36t-36 -15t-36 15t-15 36t15 36t36 15zM356 835q21 0 36 -15t15 -36t-15 -36t-36 -15t-36 15t-15 36t15 36t36 15z" />
    <glyph glyph-name="Egrave" unicode="&#xc8;" horiz-adv-x="482" 
d="M432 598h-270v-199h263v-69h-263v-261h270v-69h-345v667h345v-69zM103 837l70 45l127 -130l-43 -32z" />
    <glyph glyph-name="Iacute" unicode="&#xcd;" horiz-adv-x="248" 
d="M162 667v-667h-75v667h75zM282 837l-153 -117l-43 32l126 130z" />
    <glyph glyph-name="Icircumflex" unicode="&#xce;" horiz-adv-x="248" 
d="M162 667v-667h-75v667h75zM-16 762l139 119l141 -119l-53 -41l-88 76l-87 -76z" />
    <glyph glyph-name="Idieresis" unicode="&#xcf;" horiz-adv-x="248" 
d="M161 667v-667h-75v667h75zM52 835q21 0 36 -15t15 -36t-15 -36t-36 -15t-36 15t-15 36t15 36t36 15zM195 835q21 0 36 -15t15 -36t-15 -36t-36 -15t-36 15t-15 36t15 36t36 15z" />
    <glyph glyph-name="Igrave" unicode="&#xcc;" horiz-adv-x="248" 
d="M161 667v-667h-75v667h75zM-28 837l70 45l127 -130l-43 -32z" />
    <glyph glyph-name="Oacute" unicode="&#xd3;" horiz-adv-x="794" 
d="M398 678q142 0 244 -101t102 -244q0 -141 -102 -243t-244 -102q-146 0 -247 101t-101 248q0 138 103.5 239.5t244.5 101.5zM397 608q-111 0 -191.5 -79.5t-80.5 -191.5q0 -117 79 -198t193 -81q113 0 192.5 80.5t79.5 193.5q0 115 -79.5 195.5t-192.5 80.5zM555 837
l-153 -117l-43 32l126 130z" />
    <glyph glyph-name="Ocircumflex" unicode="&#xd4;" horiz-adv-x="794" 
d="M398 678q142 0 244 -101t102 -244q0 -141 -102 -243t-244 -102q-146 0 -247 101t-101 248q0 138 103.5 239.5t244.5 101.5zM397 608q-111 0 -191.5 -79.5t-80.5 -191.5q0 -117 79 -198t193 -81q113 0 192.5 80.5t79.5 193.5q0 115 -79.5 195.5t-192.5 80.5zM257 762
l139 119l141 -119l-53 -41l-88 76l-87 -76z" />
    <glyph glyph-name="apple" unicode="&#xf000;" horiz-adv-x="667" 
d="M481 691v-10q0 -65 -45 -114t-104 -49q0 72 40 118t109 55zM624 457q-43 -33 -62 -65.5t-19 -73.5q0 -51 26 -90t73 -59q-38 -94 -82 -145t-89 -51q-16 0 -36 8.5t-35.5 15t-44.5 6.5q-30 0 -40.5 -3.5t-40.5 -15.5t-47 -12q-66 0 -130 111t-64 224q0 97 52 158t135 61
q34 0 72.5 -15t51.5 -15q17 0 48.5 12t49 16t40.5 4q90 0 142 -71z" />
    <glyph glyph-name="Ograve" unicode="&#xd2;" horiz-adv-x="794" 
d="M398 678q142 0 244 -101t102 -244q0 -141 -102 -243t-244 -102q-146 0 -247 101t-101 248q0 138 103.5 239.5t244.5 101.5zM397 608q-111 0 -191.5 -79.5t-80.5 -191.5q0 -117 79 -198t193 -81q113 0 192.5 80.5t79.5 193.5q0 115 -79.5 195.5t-192.5 80.5zM245 837
l70 45l127 -130l-43 -32z" />
    <glyph glyph-name="Uacute" unicode="&#xda;" horiz-adv-x="649" 
d="M162 667v-409q0 -55 4 -80t21 -52.5t56 -47.5t82 -20q42 0 81 20t55 46.5t21 55.5t5 78v409h75v-429q0 -54 -10 -90.5t-38.5 -73t-80 -61.5t-108.5 -25q-59 0 -110 24t-89.5 74t-38.5 152v429h75zM482 837l-153 -117l-43 32l126 130z" />
    <glyph glyph-name="Ucircumflex" unicode="&#xdb;" horiz-adv-x="649" 
d="M162 667v-409q0 -55 4 -80t21 -52.5t56 -47.5t82 -20q42 0 81 20t55 46.5t21 55.5t5 78v409h75v-429q0 -54 -10 -90.5t-38.5 -73t-80 -61.5t-108.5 -25q-59 0 -110 24t-89.5 74t-38.5 152v429h75zM185 762l139 119l141 -119l-53 -41l-88 76l-87 -76z" />
    <glyph glyph-name="Ugrave" unicode="&#xd9;" horiz-adv-x="649" 
d="M162 667v-409q0 -55 4 -80t21 -52.5t56 -47.5t82 -20q42 0 81 20t55 46.5t21 55.5t5 78v409h75v-429q0 -54 -10 -90.5t-38.5 -73t-80 -61.5t-108.5 -25q-59 0 -110 24t-89.5 74t-38.5 152v429h75zM173 837l70 45l127 -130l-43 -32z" />
    <glyph glyph-name="dotlessi" unicode="&#x131;" horiz-adv-x="229" 
d="M150 415v-415h-71v415h71z" />
    <glyph glyph-name="circumflex" unicode="&#x2c6;" horiz-adv-x="500" 
d="M112 536l138 118l139 -118l-52 -39l-87 75l-88 -75z" />
    <glyph glyph-name="tilde" unicode="&#x2dc;" horiz-adv-x="500" 
d="M139 497l-43 34q25 41 43.5 55.5t46.5 14.5q16 0 31.5 -4t43 -17t35.5 -16t20 -3q25 0 47 42l42 -34q-32 -71 -94 -71q-13 0 -25.5 4t-49.5 20t-53 16q-15 0 -24 -8t-20 -33z" />
    <glyph glyph-name="macron" unicode="&#xaf;" horiz-adv-x="500" 
d="M99 573h302v-60h-302v60z" />
    <glyph glyph-name="macron" unicode="&#x2c9;" horiz-adv-x="500" 
d="M99 573h302v-60h-302v60z" />
    <glyph glyph-name="breve" unicode="&#x2d8;" horiz-adv-x="500" 
d="M105 617h61q13 -33 32.5 -46.5t51.5 -13.5q58 0 84 60h61q-11 -57 -49 -88.5t-96 -31.5q-57 0 -96 32t-49 88z" />
    <glyph glyph-name="dotaccent" unicode="&#x2d9;" horiz-adv-x="500" 
d="M250 605q23 0 38 -15t15 -37t-15.5 -37.5t-37.5 -15.5q-21 0 -36.5 15.5t-15.5 37.5q0 21 15.5 36.5t36.5 15.5z" />
    <glyph glyph-name="ring" unicode="&#x2da;" horiz-adv-x="500" 
d="M250 669q36 0 61 -25t25 -61t-25 -61t-61 -25t-61 25t-25 61t25 61t61 25zM250 625q-17 0 -29.5 -11.5t-12.5 -29.5t12 -30t30 -12t30 12t12 30q0 17 -12 29t-30 12z" />
    <glyph glyph-name="cedilla" unicode="&#xb8;" horiz-adv-x="500" 
d="M332 -79l-101 -128l-49 24l84 131z" />
    <glyph glyph-name="hungarumlaut" unicode="&#x2ba;" horiz-adv-x="500" 
d="M321 634l-135 -136l-41 24l105 144zM454 634l-135 -136l-41 24l106 144z" />
    <glyph glyph-name="ogonek" unicode="&#x2db;" horiz-adv-x="500" 
d="M276 0h56q-70 -51 -70 -90q0 -41 48 -41q13 0 23.5 1.5t29.5 11.5l-9 -54q-27 -14 -57 -14q-39 0 -66.5 24t-27.5 59q0 28 17 52.5t56 50.5z" />
    <glyph glyph-name="caron" unicode="&#x2c7;" horiz-adv-x="500" 
d="M389 615l-138 -118l-139 118l51 39l88 -75l88 75z" />
    <glyph glyph-name="Lslash" unicode="&#x141;" horiz-adv-x="359" 
d="M162 400l114 80v-77l-114 -80v-254h183v-69h-258v284l-67 -47v77l67 47v306h75v-267z" />
    <glyph glyph-name="lslash" unicode="&#x142;" horiz-adv-x="228" 
d="M156 410l64 47v-78l-64 -47v-332h-71v293l-65 -47v78l65 47v358h71v-319z" />
    <glyph glyph-name="Scaron" unicode="&#x160;" horiz-adv-x="517" 
d="M443 574l-59 -38q-25 40 -50.5 56t-64.5 16q-47 0 -78.5 -29.5t-31.5 -73.5q0 -43 27 -61.5t37 -24.5t30 -14l21 -10l21 -9l21 -9q151 -66 151 -183q0 -87 -60.5 -146.5t-149.5 -59.5q-81 0 -134 44t-73 128l72 20q27 -122 134 -122q58 0 97 37t39 94q0 61 -40.5 86.5
t-72.5 38.5l-20 10l-20 9l-20 9q-72 32 -103.5 70.5t-31.5 94.5q0 73 53.5 122t133.5 49q112 0 172 -104zM419 840l-139 -119l-141 119l53 41l88 -75l87 75z" />
    <glyph glyph-name="scaron" unicode="&#x161;" horiz-adv-x="350" 
d="M297 349l-59 -31q-22 41 -57 41q-21 0 -36 -13t-15 -32t13.5 -31.5t71.5 -36.5t82.5 -49.5t24.5 -73.5q0 -57 -41 -96t-100 -39q-106 0 -146 106l63 26q18 -37 36.5 -52t47.5 -15t48 18t19 47q0 24 -14 38.5t-70 38.5t-79.5 47.5t-23.5 65.5q0 50 35 83t89 33
q73 0 111 -75zM327 615l-138 -118l-139 118l51 39l88 -75l88 75z" />
    <glyph glyph-name="Zcaron" unicode="&#x17d;" horiz-adv-x="534" 
d="M147 69h354v-69h-478l364 598h-317v69h440zM417 840l-139 -119l-141 119l53 41l88 -75l87 75z" />
    <glyph glyph-name="zcaron" unicode="&#x17f;" horiz-adv-x="460" 
d="M152 66h286v-66h-430l301 349h-245v66h387zM389 615l-138 -118l-139 118l51 39l88 -75l88 75z" />
    <glyph glyph-name="brokenbar" unicode="&#xa6;" horiz-adv-x="500" 
d="M213 667h75v-334h-75v334zM213 153h75v-320h-75v320z" />
    <glyph glyph-name="Eth" unicode="&#xd0;" horiz-adv-x="633" 
d="M87 0v306h-67v69h67v292h136q81 0 138.5 -18t139 -86t81.5 -231q0 -158 -83.5 -227.5t-139.5 -87t-137 -17.5h-135zM162 69h64q127 0 204 73t77 192q0 120 -76 192t-205 72h-64v-223h145v-69h-145v-237z" />
    <glyph glyph-name="eth" unicode="&#xf0;" horiz-adv-x="522" 
d="M49 688l28 43q84 -23 153 -67l143 73l23 -44l-120 -61q204 -177 204 -416q0 -100 -61 -164t-159 -64q-93 0 -156 63t-63 155t63.5 155.5t155.5 63.5q66 0 113 -32q-27 66 -58 109t-93 96l-144 -73l-22 44l118 62q-31 20 -57.5 32.5t-67.5 24.5zM259 360q-63 0 -104 -43
t-41 -111q0 -66 41.5 -109.5t103.5 -43.5q64 0 106 43t42 110q0 68 -41 111t-107 43z" />
    <glyph glyph-name="Yacute" unicode="&#xdd;" horiz-adv-x="528" 
d="M225 287l-218 380h86l170 -298l172 298h87l-222 -380v-287h-75v287zM423 837l-154 -117l-43 32l126 130z" />
    <glyph glyph-name="yacute" unicode="&#xfd;" horiz-adv-x="460" 
d="M199 39l-191 376h82l147 -297l134 297h81l-307 -649h-80zM366 633l-135 -136l-44 25l105 144z" />
    <glyph glyph-name="Thorn" unicode="&#xde;" horiz-adv-x="457" 
d="M162 199v-199h-75v667h75v-94h46q63 0 101 -10t83.5 -50t45.5 -128q0 -87 -56.5 -136.5t-154.5 -49.5h-65zM162 267h60q69 0 106 31t37 89q0 117 -148 117h-55v-237z" />
    <glyph glyph-name="thorn" unicode="&#xfe;" horiz-adv-x="524" 
d="M139 -234h-71v963h71v-373q56 68 145 68q86 0 142 -63t56 -161q0 -91 -56.5 -151.5t-142.5 -60.5q-84 0 -144 70v-292zM273 359q-62 0 -100 -43t-38 -113q0 -66 39 -108t100 -42q57 0 96 43t39 106q0 69 -38 113t-98 44z" />
    <glyph glyph-name="minus" unicode="&#x2212;" 
d="M48 310v61h471v-61h-471z" />
    <glyph glyph-name="multiply" unicode="&#xd7;" 
d="M87 495l42 42l155 -155l155 155l42 -42l-155 -155l155 -155l-42 -42l-155 155l-155 -155l-42 42l155 155z" />
    <glyph glyph-name="onesuperior" unicode="&#xb9;" horiz-adv-x="387" 
d="M179 620h-71l28 47h96v-400h-53v353z" />
    <glyph glyph-name="twosuperior" unicode="&#xb2;" horiz-adv-x="387" 
d="M150 314h169v-47h-278l156 171q41 45 56 69t15 46q0 30 -23 51t-57 21q-73 0 -80 -80h-53q3 32 7 45t30 47.5t95 34.5q57 0 95 -34t38 -85q0 -33 -17.5 -63t-73.5 -90z" />
    <glyph glyph-name="threesuperior" unicode="&#xb3;" horiz-adv-x="387" 
d="M172 454v45q82 0 82 66q0 25 -19 43t-47 18q-33 0 -47.5 -13.5t-21.5 -49.5h-52q17 110 119 110q51 0 85.5 -30.5t34.5 -76.5q0 -31 -10 -50t-38 -39q54 -36 54 -97q0 -52 -37 -86t-95 -34q-57 0 -91.5 30.5t-34.5 84.5h51q11 -68 77 -68q33 0 55.5 21.5t22.5 53.5
q0 72 -88 72z" />
    <glyph glyph-name="onehalf" unicode="&#xbd;" horiz-adv-x="860" 
d="M165 620h-71l28 47h96v-400h-53v353zM604 680l39 -21l-388 -672l-39 23zM636 47h169v-47h-278l156 171q41 46 56 70.5t15 45.5q0 30 -23 51t-57 21q-73 0 -80 -80h-53q3 32 7 45t30 47.5t95 34.5q57 0 95 -34t38 -85q0 -33 -17.5 -63t-73.5 -90z" />
    <glyph glyph-name="onequarter" unicode="&#xbc;" horiz-adv-x="860" 
d="M165 620h-71l28 47h96v-400h-53v353zM604 680l39 -21l-388 -672l-39 23zM778 112h50v-47h-50v-65h-53v65h-215l268 365v-318zM725 112v164l-121 -164h121z" />
    <glyph glyph-name="threequarters" unicode="&#xbe;" horiz-adv-x="860" 
d="M159 454v45q82 0 82 66q0 25 -19 43t-47 18q-33 0 -47.5 -13.5t-21.5 -49.5h-52q17 110 119 110q51 0 85.5 -30.5t34.5 -76.5q0 -31 -10 -50t-38 -39q54 -36 54 -97q0 -52 -37 -86t-95 -34q-57 0 -91.5 30.5t-34.5 84.5h51q11 -68 77 -68q33 0 55.5 21.5t22.5 53.5
q0 72 -88 72zM605 680l38 -21l-388 -672l-38 23zM778 112h50v-47h-50v-65h-53v65h-215l268 365v-318zM725 112v164l-121 -164h121z" />
    </font>
</defs>
</svg>
